HIERARCHY
ROOT SimulationBone
{
	OFFSET 0.000000 0.000000 0.000000
	CHANNELS 6 Xposition Yposition Zposition Zrotation Yrotation Xrotation 
	JOINT Hips
	{
		OFFSET 0.000000 0.000000 0.000000
		CHANNELS 6 Xposition Yposition Zposition Zrotation Yrotation Xrotation 
		JOINT RightUpLeg
		{
			OFFSET 0.103458 1.857820 10.548502
			CHANNELS 3 Zrotation Yrotation Xrotation
			JOINT RightLeg
			{
				OFFSET 43.500000 -0.000023 -0.000011
				CHANNELS 3 Zrotation Yrotation Xrotation
				JOINT RightFoot
				{
					OFFSET 42.372192 0.000038 0.000002
					CHANNELS 3 Zrotation Yrotation Xrotation
					JOINT RightToe
					{
						OFFSET 17.299992 -0.000004 0.000006
						CHANNELS 3 Zrotation Yrotation Xrotation
						End Site
						{
							OFFSET 0.000000 0.000000 0.000000
						}
					}
				}
			}
		}
		JOINT LeftUpLeg
		{
			OFFSET 0.103461 1.857814 -10.548508
			CHANNELS 3 Zrotation Yrotation Xrotation
			JOINT LeftLeg
			{
				OFFSET 43.500042 -0.000015 0.000008
				CHANNELS 3 Zrotation Yrotation Xrotation
				JOINT LeftFoot
				{
					OFFSET 42.372253 0.000008 0.000006
					CHANNELS 3 Zrotation Yrotation Xrotation
					JOINT LeftToe
					{
						OFFSET 17.299973 -0.000014 0.000011
						CHANNELS 3 Zrotation Yrotation Xrotation
						End Site
						{
							OFFSET 0.000000 0.000000 0.000000
						}
					}
				}
			}
		}
		JOINT Spine
		{
			OFFSET 6.901966 -2.603737 -0.000007
			CHANNELS 3 Zrotation Yrotation Xrotation
			JOINT Spine1
			{
				OFFSET 12.588102 0.000017 0.000001
				CHANNELS 3 Zrotation Yrotation Xrotation
				JOINT Spine2
				{
					OFFSET 12.343197 -0.000013 0.000000
					CHANNELS 3 Zrotation Yrotation Xrotation
					JOINT Neck
					{
						OFFSET 25.832905 -0.000008 0.000000
						CHANNELS 3 Zrotation Yrotation Xrotation
						JOINT Head
						{
							OFFSET 11.766610 0.000009 -0.000002
							CHANNELS 3 Zrotation Yrotation Xrotation
							End Site
							{
								OFFSET 0.000000 0.000000 0.000000
							}
						}
					}
					JOINT RightShoulder
					{
						OFFSET 19.745903 -1.480377 6.000115
						CHANNELS 3 Zrotation Yrotation Xrotation
						JOINT RightArm
						{
							OFFSET 11.284125 -0.000014 -0.000024
							CHANNELS 3 Zrotation Yrotation Xrotation
							JOINT RightForeArm
							{
								OFFSET 33.000046 -0.000012 0.000029
								CHANNELS 3 Zrotation Yrotation Xrotation
								JOINT RightHand
								{
									OFFSET 25.199989 0.000034 0.000012
									CHANNELS 3 Zrotation Yrotation Xrotation
									End Site
									{
										OFFSET 0.000000 0.000000 0.000000
									}
								}
							}
						}
					}
					JOINT LeftShoulder
					{
						OFFSET 19.746098 -1.480362 -6.000071
						CHANNELS 3 Zrotation Yrotation Xrotation
						JOINT LeftArm
						{
							OFFSET 11.284137 -0.000006 -0.000008
							CHANNELS 3 Zrotation Yrotation Xrotation
							JOINT LeftForeArm
							{
								OFFSET 33.000095 0.000017 0.000000
								CHANNELS 3 Zrotation Yrotation Xrotation
								JOINT LeftHand
								{
									OFFSET 25.199778 0.000144 0.000423
									CHANNELS 3 Zrotation Yrotation Xrotation
									End Site
									{
										OFFSET 0.000000 0.000000 0.000000
									}
								}
							}
						}
					}
				}
			}
		}
	}
}
MOTION
Frames: 9
Frame Time: 0.016667
-229.025449 0.000000 -173.463995 0.000000 74.317501 0.000000 -20.633755 81.032440 4.972687 62.475576 4.157711 -178.700288 102.927876 -3.796905 -175.772118 -72.573382 -3.279762 -14.217572 84.936256 8.869832 -5.584119 21.454558 0.003112 0.000018 179.708260 6.279602 170.917588 -26.882785 3.599149 1.126094 70.528034 2.058552 8.802810 21.454553 -0.003095 0.000006 13.314804 -2.609064 0.905749 16.601297 -5.320905 1.428345 16.281812 -5.312296 1.460517 3.484081 -1.050377 4.109315 -34.912429 -7.201921 8.172015 -179.957016 -84.358596 -1.637954 28.577451 33.566848 66.578491 -70.468037 -11.995871 2.338171 -14.422143 -21.166664 20.754421 -17.294641 88.546623 164.544696 -33.882057 -15.256990 39.021840 -117.585298 -1.082837 -3.434112 -6.876497 4.675345 -26.574540 
-229.876561 0.000000 -176.327716 0.000000 76.424704 0.000000 -19.496075 80.974518 4.144046 63.240650 3.556237 -179.565039 105.837303 -4.275688 -174.910830 -68.615311 -2.762311 -16.664931 84.275673 11.046974 -2.782961 21.454561 0.003115 0.000017 -179.450439 5.188256 170.965081 -31.348254 1.710893 1.681597 69.292091 1.186293 7.121451 21.454549 -0.003086 0.000005 13.461256 -2.665188 0.867222 16.896738 -5.428268 1.336388 16.577192 -5.420220 1.369216 3.971122 -0.972411 4.511618 -34.921816 -6.835031 8.416685 178.000761 -82.678932 0.454335 24.110709 34.666840 61.422562 -69.328942 -12.839463 2.349274 -12.346674 -24.267012 16.011246 -51.371056 89.811880 130.387927 -31.348603 -21.091554 34.895726 -117.089417 -1.158684 -3.393136 -7.205496 5.243136 -27.793943 
-230.722827 0.000000 -179.387726 0.000000 78.393811 0.000000 -18.721266 81.045357 3.501025 63.982194 2.546446 179.526880 109.553583 -4.427394 -173.335899 -65.322350 -2.940531 -16.699555 84.407996 10.494446 -5.924731 21.454560 0.003114 0.000017 -179.744583 4.513791 169.815974 -37.557184 0.925728 2.187584 69.814948 0.373918 5.769761 21.454550 -0.003088 -0.000001 13.661336 -2.812956 0.781734 17.302862 -5.710938 1.134319 16.983124 -5.704111 1.168879 4.079629 -0.927050 4.979446 -34.643296 -6.441122 8.682515 -179.860970 -81.015599 -1.680043 18.666589 35.879164 55.201970 -68.365746 -13.501268 2.356052 -10.487517 -28.049211 10.925950 170.361713 88.365614 -7.958548 -28.504870 -26.660293 29.989072 -115.806512 -0.861957 -3.375488 -7.530423 5.746640 -29.156792 
-231.563294 0.000000 -182.634768 0.000000 80.220803 0.000000 -18.186315 81.027083 2.985287 64.743825 1.381722 178.747271 113.435021 -4.449196 -172.288911 -63.376976 -3.459691 -15.298296 85.812581 8.658514 -11.077894 21.454556 0.003111 0.000017 179.194948 3.989102 168.286610 -45.077368 0.779016 2.650560 71.118827 -0.261402 4.956383 21.454552 -0.003094 -0.000007 13.858055 -2.971879 0.651353 17.705456 -6.008140 0.840227 17.385495 -6.003089 0.876613 4.158115 -1.071658 5.460715 -34.280965 -5.985781 8.895525 -177.564211 -79.267783 -3.985186 12.889684 36.900815 48.140979 -67.809663 -14.018041 2.369297 -8.795168 -31.612704 6.565616 170.705121 86.351301 -7.678388 -25.423928 -31.898610 24.624383 -113.393391 -0.372270 -3.323433 -7.656633 6.144668 -30.263952 
-232.397009 0.000000 -186.059587 0.000000 81.903915 0.000000 -17.762749 80.701820 2.558899 65.543277 0.311703 178.270358 116.831341 -4.352002 -173.024934 -63.473425 -3.772350 -13.368160 88.819820 7.044566 -14.362460 21.454555 0.003109 0.000018 177.724527 3.362593 167.183305 -53.504440 0.813130 3.135494 72.222358 -0.664673 4.923171 21.454555 -0.003096 -0.000008 13.994099 -3.061706 0.478946 17.988512 -6.160340 0.475475 17.668419 -6.157490 0.512802 4.552599 -1.568866 5.901669 -34.039688 -5.432112 8.979338 -176.961063 -77.372890 -4.574950 7.534555 37.598199 40.576227 -67.892510 -14.426374 2.400717 -7.582790 -34.096577 4.254442 174.319814 84.318680 -4.093824 -22.294044 -36.794160 19.210546 -109.500198 0.125867 -3.175701 -7.382748 6.403310 -30.712932 
-233.223020 0.000000 -189.652928 0.000000 83.443289 0.000000 -17.351159 79.962043 2.204867 66.393534 -0.471572 178.232470 119.383872 -4.035294 -176.204284 -65.786560 -3.367832 -11.639653 93.173842 6.431193 -13.205380 21.454557 0.003109 0.000019 176.100816 2.497088 167.156647 -62.456052 0.666697 3.732981 72.423308 -0.842386 5.702122 21.454556 -0.003091 -0.000002 14.034935 -3.028517 0.265113 18.080941 -6.060935 0.052541 17.760895 -6.060639 0.089266 5.534313 -2.430606 6.257237 -34.105958 -4.817582 8.933736 -178.261453 -75.389779 -3.220900 3.110256 38.089863 32.895260 -68.842009 -14.700014 2.459081 -7.365997 -35.067894 5.018870 179.189644 82.380361 0.783126 -19.292606 -41.408369 14.061675 -103.982886 0.616382 -2.935366 -6.499397 6.548718 -30.301157 
-234.040374 0.000000 -193.405534 0.000000 84.840623 0.000000 -16.980496 79.141617 1.927580 67.364897 -0.988348 178.602410 121.932932 -3.428994 179.916608 -68.562087 -2.385307 -10.181934 97.602958 6.048276 -10.309880 21.454560 0.003110 0.000019 174.204412 1.529913 168.225251 -71.506479 0.239087 4.268966 72.127739 -0.966211 6.415332 21.454553 -0.003087 0.000003 14.039201 -2.922154 -0.000682 18.100596 -5.807901 -0.460174 17.780721 -5.810705 -0.424989 7.081865 -3.050040 6.558222 -34.585734 -4.480700 9.075248 -179.321057 -73.816487 -2.112055 -1.106795 38.738732 25.454169 -70.866449 -14.563340 2.532747 -8.629983 -35.634288 8.023956 -178.486380 80.460974 3.105543 -16.056270 -45.804597 8.684812 -97.543249 1.815318 -2.767437 -4.769227 6.870376 -29.620316 
-234.848119 0.000000 -197.308150 0.000000 86.098841 0.000000 -16.701540 78.582018 1.730696 68.487140 -1.299998 179.276524 125.345521 -2.537129 177.295094 -70.057271 -1.244146 -8.907402 101.003581 5.471834 -8.882986 21.454559 0.003111 0.000018 171.809464 0.634685 170.213912 -80.267471 -0.533548 4.601937 71.968001 -1.242929 6.210132 21.454545 -0.003090 -0.000002 14.067014 -2.799739 -0.313123 18.168101 -5.515264 -1.064158 17.848458 -5.521722 -1.030750 8.959499 -2.887882 6.868810 -35.435098 -4.681681 9.663086 -178.957171 -73.119137 -2.473611 -5.986492 39.727589 18.426785 -74.085034 -13.691423 2.593961 -11.569084 -36.570502 12.098067 -179.350583 78.535995 2.197513 -12.008757 -49.885283 2.373010 -90.956141 4.305938 -2.685800 -2.285473 7.698937 -29.129742 
-235.645300 0.000000 -201.351521 0.000000 87.221790 0.000000 -16.521975 78.213768 1.614607 69.541182 -1.428465 -179.954804 129.324700 -1.458692 176.291636 -70.417200 -0.487900 -7.974266 103.836093 5.021526 -8.586712 21.454558 0.003109 0.000017 168.634570 -0.145007 172.813895 -88.563176 -1.523509 4.960356 72.376590 -1.790834 5.258488 21.454541 -0.003095 -0.000009 14.089956 -2.645769 -0.592240 18.221840 -5.164913 -1.596198 17.902472 -5.174589 -1.564916 10.350131 -2.288753 7.175309 -36.094236 -5.096702 10.380753 -178.406973 -73.066942 -3.036995 -11.319019 40.859601 11.701750 -78.306800 -11.806956 2.657144 -14.993242 -36.228890 16.341636 -178.805118 76.639546 2.723685 -7.025340 -53.312855 -4.920086 -84.521479 7.249235 -2.570463 -0.497980 9.190285 -28.054188 
